<svg xmlns="http://www.w3.org/2000/svg" viewBox="0 0 16 16" fill="#000000" id="X-Logo-Fill--Streamline-Phosphor-Fill" height="16" width="16">
  <desc>
    X Logo Fill Streamline Icon: https://streamlinehq.com
  </desc>
  <path d="M15.10548125 15.50108125c-0.11456875 0.20869375 -0.33359375 0.33854375 -0.5716625 0.33891875h-3.92c-0.223475 -0.00006875 -0.4314125 -0.11435625 -0.55125 -0.30298125l-3.3066875 -5.19645 -4.8052625 5.2854625c-0.3426875 0.368125 -0.95536875 0.22723125 -1.102825 -0.2536 -0.0668 -0.21781875 -0.01530625 -0.4547 0.1358875 -0.62513125l5.04455 -5.55333125L0.9159 1.1645c-0.27033125 -0.42410625 0.019825 -0.9818125 0.522275 -1.00386875 0.00965625 -0.000425 0.0193125 -0.0006375 0.028975 -0.00063125h3.92c0.223475 0.00006875 0.4314125 0.11435625 0.55125 0.30298125l3.30668125 5.19645 4.80526875 -5.2854625c0.34268125 -0.368125 0.9553625 -0.22723125 1.102825 0.2536 0.06679375 0.21781875 0.0153 0.4547 -0.13589375 0.62513125l-5.04455 5.54925 5.1123375 8.03436875c0.12751875 0.20128125 0.13534375 0.45603125 0.0204125 0.6647625Z" stroke-width="0.0625"></path>
</svg>