<svg xmlns="http://www.w3.org/2000/svg" width="512" height="512" viewBox="0 0 512 512">
  <g transform="translate(6 42.467) scale(0.2439)">
    <path fill="#0f044b" d="M 1688.46 192.332 C 1844.68 180.027 2027.31 530.8 2038.02 666.035 C 2041.52 710.203 2049.8 763.712 2029.81 805.524 C 2011.49 843.841 1973.12 849.814 1937.13 862.973 L 1818.65 905.803 L 1549.78 1002.77 C 1532.62 1008.9 1516.19 1015.59 1498.76 1021.65 C 1451.44 1033.63 1429.16 1061.37 1379.36 1020.53 C 1265.66 927.281 1197.14 770.09 1167.68 628.536 C 1158.63 585.055 1154.85 517.121 1181.06 478.927 C 1190.91 466.022 1254.07 432.937 1269.99 423.834 L 1431.92 331.42 L 1577.22 248.279 C 1604.54 232.628 1632.22 216.75 1659.79 201.534 C 1669.14 196.375 1677.92 193.581 1688.46 192.332 z M 1467.36 810.641 C 1472.74 809.072 1478.08 807.649 1483.26 805.512 L 1689.35 717.271 L 1743.99 694.129 C 1756.83 688.679 1778.36 682.37 1784.03 668.436 C 1807.09 611.725 1722.91 437.95 1660.55 442.148 C 1649.54 444.445 1631.24 455.023 1620.68 460.408 L 1566.49 487.999 L 1444.42 550.072 C 1423.22 560.821 1401.78 571.327 1380.69 582.236 C 1377.53 583.869 1367.45 589.995 1365.8 592.695 C 1357.37 606.493 1361.74 635.166 1365.72 650.553 C 1378.72 700.83 1409.6 772.498 1451.69 804.376 C 1455.19 807.026 1463.32 809.512 1467.36 810.641 z"/>
    <path fill="#fe9000" d="M888.604 4.74922C888.844 4.98991 974.186 341.464 978.023 365.476 1000.3 325.893 1028.55 284.376 1052.82 245.617 1100.56 168.782 1149.37 92.618 1199.24 17.148 1200.22 20.9971 1200.52 24.6879 1201.31 28.5233 1212.72 83.742 1220.7 139.587 1231.5 194.919 1233.35 204.344 1235.21 214.236 1236.24 223.759 1248.16 220.17 1262.04 217.344 1274.36 214.306L1368.69 191.775 1473.83 167.384C1487.24 164.157 1502.77 158.86 1516.16 156.36 1507.17 164.273 1490.7 172.575 1480.21 179.651 1445.2 203.274 1408.76 225.142 1372.96 247.581L1238.69 332.112C1222.47 342.312 1183.55 367.83 1167.98 374.938 1166.29 318.986 1162.23 264.26 1162.04 207.641 1155.04 222.565 1146.16 247.111 1139.85 262.924L1093.17 379.413C1088.77 390.224 1075.63 425.08 1070.4 433.95L1069.52 435.419C1065.36 442.449 1036.13 459.174 1027.8 464.389L963.08 504.957 900.528 543.957C890.651 550.098 881.876 556.398 871.553 561.85 872.148 537.716 869.758 508.611 868.528 484.116L864.25 387.729C860.239 309.109 857.033 230.451 854.633 151.766 851.785 157.962 848.696 169.665 846.259 176.566 837.311 201.904 830.623 228.192 822.168 253.631L722.15 564.033 701.008 629.905C683.543 684.985 690.947 675.983 642.667 705.88 610.431 725.454 577.524 746.837 545.463 766.94L286.606 929.266C256.223 948.473 225.711 967.476 195.073 986.273 187.561 990.878 179.986 995.355 173.18 1000.98 172.329 1001.08 171.478 1001.19 170.628 1001.29L169.075 1000.06C168.951 996.842 180.23 980.596 183.161 975.06L381.773 602.098 428.638 515.529C437.278 499.793 447.084 483.076 454.95 467.064 442.945 477.045 423.411 497.144 410.734 508.713L284.315 624.678C273.486 634.648 262.573 644.761 251.501 654.452 245.054 660.094 235.459 670.758 228.735 675.05L227.983 674.318C227.51 660.339 257.1 588.235 264.378 573.024 295.304 508.39 333.467 444.743 380.767 390.606 400.406 368.128 424.471 345.326 445.454 323.912 447.623 321.699 461.233 306.265 462.196 305.651 471.059 299.996 485.683 283.917 493.593 280.042 503.868 275.008 501.802 271.856 509.659 266.832 552.191 239.633 587.87 213.27 634.973 192.982 630.695 209.324 628.199 232.534 625.217 249.892L604.033 372.555C596.482 416.374 587.074 460.117 580.243 504.112 578.133 517.704 574.484 532.52 573.036 545.778L792.653 165.566C811.389 132.833 830.396 100.255 849.673 67.8363 857.807 53.8444 879.119 13.7457 888.604 4.74922zM1491.5 1138.72C1508.57 1131.78 1527.6 1126.88 1545.18 1121.22L1672.02 1081.17 1809.14 1037.78C1815.92 1035.69 1845.81 1025.81 1850.21 1025.58 1859.57 1043.55 1829.54 1168.99 1821.89 1193.4 1787.85 1303.55 1729.74 1404.74 1651.77 1489.66 1641.41 1500.82 1618.42 1524.74 1606.25 1534.22L1604.43 1533.85C1599.89 1524.59 1619.39 1376.92 1620.47 1354.95 1621.7 1329.96 1628.75 1281.45 1631.51 1254.88 1625.94 1263.8 1621.94 1273.4 1617 1282.71 1599.77 1315.21 1583.81 1348.44 1567.12 1381.26L1441.6 1627.39C1428.1 1654.57 1414.44 1681.67 1400.62 1708.68 1395.31 1718.95 1386.53 1736.89 1380.44 1746.23 1373.56 1733.24 1363.76 1705.01 1358.34 1690.26L1325.57 1601.34C1292.25 1513.77 1259.77 1425.87 1228.14 1337.67 1218.5 1346.89 1196.48 1362.16 1185.07 1370.52L1106.19 1428.26 1027.83 1485.65C1020.24 1491.16 999.696 1506.92 992.405 1511.15 977.734 1498.35 964.244 1484.92 950.497 1471.16 921.091 1441.72 889.887 1413.63 860.757 1383.95 850.744 1398.76 837.032 1415.68 825.949 1430.12L760.939 1514.52C723.52 1563.9 685.707 1612.98 647.502 1661.75 642.75 1667.73 625.659 1692.18 620.698 1694.5 615.571 1682.67 613.291 1609.36 611.906 1592.69 609.488 1563.59 605.692 1528.11 606.034 1498.91 535.723 1501.65 464.174 1502.54 393.833 1502.73 376.789 1502.78 354.56 1503.81 337.933 1502.78 348.321 1498.96 364.692 1494.23 375.577 1492.2 379.833 1490.13 393.285 1485.92 398.413 1484.2 412.559 1479.44 426.741 1474.79 440.958 1470.24 453.401 1466.37 466.252 1463.04 478.134 1457.8 503.498 1451.76 526.921 1441.92 551.589 1434.96 607.026 1419.33 662.487 1397.95 718.04 1383.25 717.974 1388.13 718.041 1394.73 717.407 1399.48 713.608 1427.91 711.966 1456.81 706.83 1485.03 751.854 1429.59 798.923 1375.52 844.878 1320.83 847.173 1318.1 851.533 1314.33 854.846 1313.14 863.283 1315.15 887.369 1329.74 896.845 1334.61 928.38 1350.83 959.634 1368.97 991.122 1385.13 1019.57 1353.11 1065.26 1296.44 1096.14 1265.21 1101.95 1259.32 1158.43 1243.36 1171.64 1239.27L1260.85 1211.25C1286.18 1203.22 1311.42 1194.58 1336.9 1187.05 1344.14 1184.9 1353 1181.48 1359.99 1179.72 1367.26 1257.44 1371.42 1336.21 1376.92 1414.09L1383.37 1507.49C1384.82 1529.1 1386.91 1554.49 1386.12 1575.83 1392.1 1561.74 1398.22 1524.46 1402.33 1507.18L1456.52 1275.16 1474.94 1195.25C1478.3 1180.63 1483.4 1149.83 1491.5 1138.72z"/>
    <path fill="#0f044b" d="M 973.462 629.41 C 975.11 629.297 976.761 629.243 978.413 629.248 C 1030 628.942 1074.6 640.982 1112.17 678.399 C 1121.72 688.025 1130.15 698.696 1137.31 710.211 C 1151.83 733.567 1169.53 775.453 1171.1 803.151 C 1172.23 823.195 1148.57 839.793 1134.1 852.124 L 1094.17 886.135 L 953.163 1006.78 C 934.558 1022.86 911.432 1040.57 894.385 1057.44 C 908.75 1050.04 926.763 1043.03 941.8 1036.45 L 1046.39 991.578 L 1151.96 946.44 C 1173.85 937.052 1201.87 922.764 1224.58 918.303 C 1232.68 916.71 1248.68 959.484 1252 966.811 L 1285.21 1041.11 C 1290.13 1052.41 1303.61 1078.01 1301.02 1089.14 C 1293.02 1098.11 1243.27 1113.33 1228.09 1118.9 L 1056.51 1181.14 L 872.972 1247.6 C 835.569 1261.32 790.732 1278.87 753.339 1290.94 C 744.557 1293.9 731.631 1298.03 723.286 1302.11 C 691.234 1317.8 691.658 1298.99 682.41 1273.43 C 668.943 1236.21 655.045 1206.73 656.439 1165.41 C 658.349 1108.82 679.032 1089.79 717.539 1053.84 L 765.956 1008.69 L 980.045 808.529 C 961.845 807.268 940.983 806.499 924.096 814.971 C 876.349 838.904 829.086 863.654 781.209 887.362 C 763.911 895.36 753.074 903.77 742.387 919.546 C 731.725 935.286 738.924 957.006 734.056 970.192 C 730.101 974.87 615.648 1030.14 601.547 1034.23 C 600.581 1034.51 598.758 1033.98 597.829 1032.96 C 586.425 1020.35 579.06 981.059 577.942 966.167 C 573.271 903.911 600.883 850.51 640.328 804.735 C 683.47 754.67 737.605 731.616 793.495 698.546 C 821.314 682.086 852.467 663.368 882.104 651.008 C 912.43 638.359 940.625 631.607 973.462 629.41 z"/>
    <path fill="url(#a)" d="M 375.577 1492.2 L 372.24 1490.93 L 371.997 1489.71 C 376.948 1484.95 384.915 1485.93 390.511 1481.63 C 391.274 1480.28 393.26 1482.37 394.031 1482.01 C 417.066 1471.33 442.734 1467.79 465.955 1457.53 C 467.349 1456.92 476.177 1457.66 478.134 1457.8 C 466.252 1463.04 453.401 1466.37 440.958 1470.24 C 426.741 1474.79 412.559 1479.44 398.413 1484.2 C 393.285 1485.92 379.833 1490.13 375.577 1492.2 z"/>
    <path fill="#0f044b" d="M 0 1309.49 C 8.67187 1286.43 2.13994 1282.87 29.1315 1269.97 C 102.936 1234.71 175.677 1196.87 249.01 1160.54 L 338.229 1115.83 C 351.542 1109.12 366.013 1103.37 378.62 1095.45 C 385.324 1091.23 390.425 1087.01 393.072 1079.19 C 406.464 1039.64 355.946 961.665 368.355 946.831 C 374.504 939.48 460.826 891.018 475.756 883.324 C 480.082 881.095 485.076 878.576 489.967 880.073 C 498.47 889.928 513.234 937.951 518.545 952.632 L 567.464 1088.25 L 626.579 1252.78 C 630.598 1264.2 656.977 1323.75 644.648 1328.97 C 605.849 1345.37 564.374 1358.25 524.778 1373.15 C 504.654 1380.78 504.387 1359.92 498.759 1346.88 C 485.009 1313.66 482.601 1266.75 444.303 1253 L 442.941 1253.31 C 433.718 1255.45 420.356 1261.52 411.291 1265.3 L 354.555 1289.38 L 144.729 1377.7 C 120.087 1388.19 89.2865 1402.5 65.2866 1409.9 C 38.2704 1418.23 7.6468 1369.23 5.2761 1346.81 C 4.78836 1342.2 1.37155 1327.2 0 1323.81 L 0 1309.49 z"/>
  </g>
</svg>